<?xml version="1.0" encoding="utf-8"?>
<!-- Generator: Adobe Illustrator 20.0.0, SVG Export Plug-In . SVG Version: 6.00 Build 0)  -->
<svg version="1.1" id="Layer_1" xmlns="http://www.w3.org/2000/svg" xmlns:xlink="http://www.w3.org/1999/xlink" x="0px" y="0px"
	 viewBox="0 0 480.6 367.3" style="enable-background:new 0 0 480.6 367.3;" xml:space="preserve">
<style type="text/css">
	.st0{fill:#D71D24;}
	.st1{fill:#FFFFFF;}
	.st2{fill:#6594B3;}
	.st3{fill:#00446A;}
</style>
<title>HEIM-logo-with-black</title>
<path d="M225.7,359.9c-45.7-23.1-83.1-55.6-108.3-93.9C95.9,233.3,84,197.5,84,165.2V47.4L240.3,0l156.2,47.4v117.9
	c0,32.3-11.9,68.1-33.4,100.8c-25,38.2-62.5,70.7-108.2,93.8l-14.6,7.4L225.7,359.9z"/>
<path class="st0" d="M43.7,154.7H90v-17.3H76.1v-15.2h55.7v15.2h-14.4V188h14.4v16.7H76.1V188H90v-18.1H43.7V188h14.4v16.7H2.4V188
	h13.9v-50.6H2.4v-15.2h55.7v15.2H43.7V154.7z"/>
<path class="st0" d="M228.2,172.6h18.4v32.1H142.5V188h13.9v-50.6h-13.9v-15.2h104.1v32h-18.4v-16.8h-44.4v17.3h30.5v15.2h-30.5V188
	h44.4L228.2,172.6z"/>
<path class="st0" d="M298.6,188H313v16.7h-55.7V188h13.9v-50.6h-13.9v-15.2H313v15.2h-14.4V188z"/>
<path class="st0" d="M400,202.6h-3.7l-37.4-43.5v28.8h19.2v16.7h-54.3v-16.7h13.9v-50.5h-13.9v-15.2h34.4l2.9,0.8l39.2,45.3l39-45.2
	l2.9-0.9h35.9v15.2h-13.9v50.5h13.9v16.7h-55.7v-16.7h14.4v-28.7L400,202.6z"/>
<path class="st1" d="M11.2,222.7c-1.1-1-2.5-1.5-3.9-1.4c-1.7,0-3,0.7-3,1.9c0,1.5,1.5,1.8,3.6,2c3.3,0.3,6.5,1.6,6.5,5.4
	s-3.5,5.4-7.1,5.4c-2.9,0-5.9-1.1-7.3-3.5l2.2-2.3c1.3,1.5,3.2,2.4,5.1,2.4c2,0,3.4-0.8,3.4-2c0-1.4-1.1-2.1-3.4-2.3
	c-3.5-0.3-6.7-1.2-6.7-5.2c0-3.3,3.2-5.1,6.7-5.1c2.6,0,4.5,0.6,6.3,2.6L11.2,222.7z"/>
<path class="st1" d="M28.9,232.5h-8.6l-1.2,2.9h-4l7.5-16.8h4.1l7.5,16.8h-4.1L28.9,232.5z M24.6,222.4l-2.9,6.8h5.8L24.6,222.4z"/>
<path class="st1" d="M36.2,235.4v-16.8h12.2v3.4h-8.5v4h8v3.3h-8v6L36.2,235.4z"/>
<path class="st1" d="M64.2,235.4H51.5v-16.8H64v3.4h-8.8v3.2h8.3v3.3h-8.3v3.5h9.1L64.2,235.4z"/>
<path class="st1" d="M71.1,221.9H66v-3.3h13.9v3.3h-5.1v13.5h-3.7C71.1,235.4,71.1,221.9,71.1,221.9z"/>
<path class="st1" d="M89,225.3l4.2-6.7h4.3v0.2l-6.7,9.9v6.7h-3.7v-6.7l-6.4-9.9v-0.2H85L89,225.3z"/>
<path class="st0" d="M102.6,230.3v-6.4h6.1v6.4H102.6z"/>
<path class="st1" d="M129.6,235.4h-12.8v-16.8h12.5v3.4h-8.8v3.2h8.3v3.3h-8.3v3.5h9.1V235.4z"/>
<path class="st1" d="M136.5,218.6V232h8.4v3.4h-12.1v-16.8L136.5,218.6z"/>
<path class="st1" d="M160.2,235.4h-12.8v-16.8h12.5v3.4h-8.8v3.2h8.3v3.3h-8.3v3.5h9.1V235.4z"/>
<path class="st1" d="M177.7,233.4c-1.7,1.7-4.1,2.6-6.5,2.5c-6.4,0-9-4.1-9-8.7c0-4.3,2.8-8.9,9-8.9c2.3,0,4.5,0.9,6.2,2.6l-2.4,2.3
	c-1-0.9-2.4-1.4-3.8-1.4c-2.8-0.1-5.2,2.1-5.3,4.9c0,0.2,0,0.4,0,0.5c-0.2,2.7,1.8,5,4.5,5.2c0.3,0,0.5,0,0.8,0c1.5,0,3-0.6,4.1-1.6
	L177.7,233.4z"/>
<path class="st1" d="M183.8,221.9h-5.1v-3.3h13.9v3.3h-5.1v13.5h-3.7L183.8,221.9L183.8,221.9z"/>
<path class="st1" d="M210.1,235.4H206l-4.3-5.5h-2.8v5.5h-3.7v-16.8h8c4.1,0,6.2,2.7,6.2,5.7c0,2.2-0.7,4.1-3.9,5.3l4.6,5.6V235.4z
	 M198.9,221.8v4.9h4.3c1.3,0.1,2.4-0.9,2.5-2.2l0,0c0-0.1,0-0.1,0-0.2c0-1.4-1-2.5-2.4-2.5l0,0H198.9L198.9,221.8z"/>
<path class="st1" d="M220.8,235.8c-5.4,0-9.1-3.3-9.1-8.8s3.7-8.8,9.1-8.8s9.1,3.3,9.1,8.8S226.2,235.8,220.8,235.8z M220.8,221.6
	c-2.9-0.1-5.3,2.2-5.4,5.1l0,0c0,0.1,0,0.2,0,0.3c0,3,2.5,5.4,5.4,5.3c3,0,5.4-2.5,5.3-5.4C226.2,223.9,223.8,221.6,220.8,221.6z"/>
<path class="st1" d="M244.6,229.5l-0.2-5.3v-5.6h3.8v16.8H245l-8.4-10.8l0.1,5.5v5.2h-3.8v-16.8h3.2L244.6,229.5z"/>
<path class="st1" d="M252.1,235.4v-16.8h3.7v16.8H252.1z"/>
<path class="st1" d="M274.3,233.4c-1.7,1.7-4.1,2.6-6.5,2.5c-6.4,0-9-4.1-9-8.7c0-4.3,2.8-8.9,9-8.9c2.3,0,4.5,0.9,6.2,2.6l-2.4,2.3
	c-1-0.9-2.4-1.4-3.8-1.4c-2.8-0.1-5.2,2.1-5.3,4.9c0,0.2,0,0.4,0,0.5c-0.2,2.7,1.8,5,4.5,5.2c0.3,0,0.5,0,0.8,0c1.5,0,3-0.6,4.1-1.6
	L274.3,233.4z"/>
<path class="st1" d="M286.7,222.7c-1.1-1-2.5-1.5-3.9-1.4c-1.7,0-3,0.7-3,1.9c0,1.5,1.5,1.8,3.6,2c3.3,0.3,6.5,1.6,6.5,5.4
	s-3.5,5.4-7.1,5.4c-2.9,0-5.9-1.1-7.3-3.5l2.2-2.3c1.3,1.5,3.2,2.4,5.1,2.4c2,0,3.4-0.8,3.4-2c0-1.4-1.1-2.1-3.4-2.3
	c-3.5-0.3-6.7-1.2-6.7-5.2c0-3.3,3.2-5.1,6.6-5.1c2.6,0,4.5,0.6,6.3,2.6L286.7,222.7z"/>
<path class="st0" d="M296.7,230.3v-6.4h6.1v6.4H296.7z"/>
<path class="st1" d="M322,232.5h-8.6l-1.2,2.9h-4l7.5-16.8h4.1l7.5,16.8h-4.1L322,232.5z M317.7,222.4l-2.9,6.8h5.8L317.7,222.4z"/>
<path class="st1" d="M343.8,218.6v9.4c0,5-2.8,7.7-7.2,7.8s-8.1-2.4-8.1-7.8v-9.4h3.7v9.4c0,3,1.7,4.6,4.4,4.4
	c2.5-0.2,3.5-1.9,3.5-4.4v-9.4H343.8z"/>
<path class="st1" d="M351.1,221.9H346v-3.3h14v3.3h-5.1v13.5h-3.7L351.1,221.9z"/>
<path class="st1" d="M370.3,235.8c-5.4,0-9.1-3.3-9.1-8.8s3.7-8.8,9.1-8.8s9.1,3.3,9.1,8.8S375.7,235.8,370.3,235.8z M370.3,221.6
	c-2.9-0.1-5.3,2.2-5.4,5.1l0,0c0,0.1,0,0.2,0,0.3c0,3,2.5,5.4,5.4,5.3c3,0,5.4-2.5,5.3-5.4C375.7,223.9,373.3,221.6,370.3,221.6z"/>
<path class="st1" d="M397,223.8l-5.2,6.5h-0.7l-5-6.6v11.7h-3.7v-16.8h4.3l4.9,6.5l4.9-6.5h4.2v16.8H397L397,223.8z"/>
<path class="st1" d="M416.7,232.5h-8.6l-1.2,2.9h-4l7.5-16.8h4.1l7.5,16.8h-4.1L416.7,232.5z M412.4,222.4l-2.9,6.8h5.8L412.4,222.4
	z"/>
<path class="st1" d="M426.1,221.9H421v-3.3h14v3.3h-5.1v13.5h-3.7L426.1,221.9z"/>
<path class="st1" d="M437.5,235.4v-16.8h3.7v16.8H437.5z"/>
<path class="st1" d="M453.3,235.8c-5.4,0-9.1-3.3-9.1-8.8s3.7-8.8,9.1-8.8s9.1,3.3,9.1,8.8S458.7,235.8,453.3,235.8z M453.3,221.6
	c-2.9-0.1-5.3,2.2-5.4,5.1l0,0c0,0.1,0,0.2,0,0.3c0,3,2.5,5.4,5.4,5.3c3,0,5.4-2.5,5.3-5.4C458.7,223.9,456.3,221.6,453.3,221.6z"/>
<path class="st1" d="M477.1,229.5l-0.2-5.3v-5.6h3.8v16.8h-3.2l-8.4-10.8l0.1,5.5v5.2h-3.8v-16.8h3.2L477.1,229.5z"/>
<path class="st2" d="M240.3,105.4V33.9L116.5,71.4v34H240.3z"/>
<path class="st2" d="M145.7,250.2c19.7,29.3,50.3,58.4,94.6,80.8v-80.8H145.7z"/>
<path class="st3" d="M364.2,105.4v-34L240.3,33.9v71.6L364.2,105.4L364.2,105.4z"/>
<path class="st3" d="M240.3,250.2V331c44.3-22.4,74.9-51.5,94.6-80.8H240.3z"/>
</svg>
