<svg xmlns="http://www.w3.org/2000/svg" viewBox="0 0 125.86 144"><defs><style>.cls-1{fill:#d71d24;}.cls-2{fill:#fff;}</style></defs><title>icon-heim-cares</title><g id="Layer_1" data-name="Layer 1"><path class="cls-1" d="M72,144c45.94-23.25,62.93-60.77,62.93-84.23V19.09L72,0,9.07,19.09V59.77C9.07,83.23,26.06,120.75,72,144Z" transform="translate(-9.07 0)"/></g><g id="care"><path class="cls-2" d="M72.06,120.13S37.53,85.53,32.48,80.45s-20.83-25-1.3-41.84,37,2.73,40.88,6.36c3.86-3.63,21.35-23.16,40.88-6.36s3.23,37.6-1,41.8ZM106.88,75.3c2.4-2.38,8.55-10.38,8.25-18.6-.17-4.66-2.42-8.79-6.89-12.63-3.9-3.35-7.71-5-11.65-5-8.25,0-15.52,7.14-18.62,10.18l-1,.95-4.93,4.64-4.93-4.64-1-1c-3.1-3-10.37-10.18-18.62-10.18-3.94,0-7.75,1.63-11.65,5-4.53,3.9-6.82,8-7,12.58-.3,7.56,5.34,15.33,8.71,18.73C41.4,79.21,62.27,100.13,72.07,110Z" transform="translate(-9.07 0)"/></g></svg>