<svg xmlns="http://www.w3.org/2000/svg" viewBox="0 0 125.86 144"><defs><style>.cls-1{fill:#d71d24;}.cls-2{fill:#fff;}</style></defs><title>icon-fire</title><g id="Layer_1" data-name="Layer 1"><path class="cls-1" d="M72,144c45.94-23.25,62.93-60.77,62.93-84.23V19.09L72,0,9.07,19.09V59.77C9.07,83.23,26.06,120.75,72,144Z" transform="translate(-9.07 0)"/></g><g id="fire"><path class="cls-2" d="M62.18,15c18.93,8.77,34.91,26.39,32.2,58C100,64.67,102,58.45,103,49c5.12,4.51,10.73,13.43,10.73,26,0,21.22-14.81,35.68-30.06,42-9.77-8-16-18.07-17.17-30a31.4,31.4,0,0,0,4.29,30c-20,0-38.64-14.69-38.64-36,0-16.76,11.46-25,17.17-30C61,40.89,63.63,25.76,62.18,15Zm44.32,60a32.28,32.28,0,0,0-.82-7.37A38.15,38.15,0,0,1,100.35,77,25.28,25.28,0,0,1,86.06,85.8l1.15-13.4c2-23-7.18-36.71-18-44.83A46,46,0,0,1,54,56.47l-1.46,1.25C47,62.43,39.33,68.88,39.33,81c0,12.9,8.59,22.23,19.08,26.38-1.92-7.58-2.07-14.56,1.36-23S71.17,70,71.17,70s.11,9.35,1.75,15.83,5.29,16.13,12,22.63C96,102.59,106.51,91.31,106.51,75Z" transform="translate(-9.07 0)"/></g></svg>