<svg xmlns="http://www.w3.org/2000/svg" viewBox="0 0 125.86 144"><defs><style>.cls-1{fill:#d71d24;}.cls-2{fill:#fff;}</style></defs><title>icon-security</title><g id="Layer_1" data-name="Layer 1"><path class="cls-1" d="M72,144c45.94-23.25,62.93-60.77,62.93-84.23V19.09L72,0,9.07,19.09V59.77C9.07,83.23,26.06,120.75,72,144Z" transform="translate(-9.07 0)"/></g><g id="security"><path class="cls-2" d="M72,103.41a34.74,34.74,0,0,1,0-69.48V26a42.71,42.71,0,1,0,42.71,42.71h-8A34.78,34.78,0,0,1,72,103.41Z" transform="translate(-9.07 0)"/><polygon class="cls-2" points="49.08 57.88 42.87 62.86 60.32 84.63 99.56 37.64 93.45 32.53 60.45 72.05 49.08 57.88"/></g></svg>