<svg id="Layer_1" data-name="Layer 1" xmlns="http://www.w3.org/2000/svg" viewBox="0 0 447.81 54.17"><defs><style>.cls-1{fill:#fff;}</style></defs><title>its-better-with-heim</title><path class="cls-1" d="M31.73,61.46A28.89,28.89,0,0,1,32.4,56q.67-3.33,1.74-7.19T36.6,41q1.39-4,2.84-7.56t2.84-6.2a17.6,17.6,0,0,1,2.49-3.82,6.17,6.17,0,0,1,1.53.43,19.47,19.47,0,0,1,1.94.9A13.66,13.66,0,0,1,50,25.85a3.2,3.2,0,0,1,1,1.13,17,17,0,0,0-3.33,4.54,63.29,63.29,0,0,0-3.19,6.91Q43,42.32,41.69,46.63T39.38,55q-1,4.05-1.53,7.52a37.47,37.47,0,0,0-.55,5.61,2.51,2.51,0,0,0,.17,1.21A3.5,3.5,0,0,1,35.61,69a3.39,3.39,0,0,1-.9-.81c-.21-.29-.41-.58-.58-.87a1.66,1.66,0,0,0-.78-.67,1.49,1.49,0,0,1-.69-.81,8.7,8.7,0,0,1-.49-1.42,14.26,14.26,0,0,1-.32-1.59A9.67,9.67,0,0,1,31.73,61.46Z" transform="translate(-31.73 -16.53)"/><path class="cls-1" d="M49,42.59a3.72,3.72,0,0,1-.52-1.48,9.84,9.84,0,0,1-.23-1.94,19.06,19.06,0,0,0,2.9.23h2.55q.87-1.72,1.88-3.41t2-3.09a26.59,26.59,0,0,1,1.79-2.38,6.76,6.76,0,0,1,1.3-1.26,7,7,0,0,1,1.48.2,17.72,17.72,0,0,1,1.82.52,18,18,0,0,1,1.68.67,3,3,0,0,1,1,.69q-1.74,2.18-3,4.05T61,39.69h2.35a17,17,0,0,0,2.4-.17,2.13,2.13,0,0,1,.46.72,2.4,2.4,0,0,1,.17.9,19.1,19.1,0,0,1-6.89,1.1Q58,45,56.9,47.78T55,53.1a46.46,46.46,0,0,0-1.22,4.82A21.8,21.8,0,0,0,53.33,62q0,2.55,1.91,2.85a13.35,13.35,0,0,0,3.3-.87,10.93,10.93,0,0,0,2.78-1.62,2.41,2.41,0,0,1,.41.87,6.14,6.14,0,0,1-1.19,1.21q-.84.69-1.82,1.35a17.43,17.43,0,0,1-1.91,1.12,5,5,0,0,1-1.39.52,7.75,7.75,0,0,1-2.9-.58,12,12,0,0,1-2.63-1.45,8.41,8.41,0,0,1-1.94-1.94,3.68,3.68,0,0,1-.75-2.12,20.64,20.64,0,0,1,.38-3.51q.38-2.12,1.07-4.61T50.26,48q.93-2.73,2-5.39Z" transform="translate(-31.73 -16.53)"/><path class="cls-1" d="M73.08,34.31a2.55,2.55,0,0,1-.64-1,3.12,3.12,0,0,1-.29-1.25,18.8,18.8,0,0,0,2.08-4.89,22.11,22.11,0,0,0,.64-5.53,41.39,41.39,0,0,0-.35-5.1,16.33,16.33,0,0,1,2.87.49,14.1,14.1,0,0,1,2.55.93,7.33,7.33,0,0,1,1.88,1.27,3.1,3.1,0,0,1,.93,1.42Q80.55,30.37,73.08,34.31Z" transform="translate(-31.73 -16.53)"/><path class="cls-1" d="M94,41.63a11.1,11.1,0,0,1-.38,2.29,12.11,12.11,0,0,1-.78,2.14,8.08,8.08,0,0,1-1,1.59,1.39,1.39,0,0,1-1,.64q-.64-.06-.75-.87a1.77,1.77,0,0,1,.15-.55l.32-.84q.17-.46.32-.93A2.78,2.78,0,0,0,91,44.3a2.36,2.36,0,0,0-.38-1.36,1.17,1.17,0,0,0-1-.55q-2.32,0-3.53,2.88a22.77,22.77,0,0,0-1.22,8.47,2.22,2.22,0,0,0,.06.69H89a1.2,1.2,0,0,1,.06.46,1,1,0,0,1-.23.75q-1.33.29-2.11.49a8.94,8.94,0,0,0-1.19.37.89.89,0,0,0-.49.38,1.41,1.41,0,0,0-.09.55c0,.31,0,.61,0,.92s0,.69,0,1.15a11.25,11.25,0,0,1-2.64,7.79A10.83,10.83,0,0,1,75,70.7a4.79,4.79,0,0,1-1.68-.46,8.08,8.08,0,0,1-3-2.46,5,5,0,0,1-.81-1.59A10,10,0,0,1,70.48,62,11.77,11.77,0,0,1,73,58.39a12.78,12.78,0,0,1,3.76-2.51,11.52,11.52,0,0,1,4.72-1,14,14,0,0,0-.29-2.85q-.29-1.4-.61-2.7T80,46.81a10.89,10.89,0,0,1-.29-2.47,8.07,8.07,0,0,1,.64-3.11A11.73,11.73,0,0,1,82,38.38a10.7,10.7,0,0,1,2.43-2.24,8.73,8.73,0,0,1,2.9-1.28,5.5,5.5,0,0,1,1.71,1,23.57,23.57,0,0,1,2.11,1.88A20.56,20.56,0,0,1,93,39.87,5.39,5.39,0,0,1,94,41.63ZM74.88,68a9.52,9.52,0,0,0,2.63-1.68,12.77,12.77,0,0,0,2.17-2.49,13.27,13.27,0,0,0,1.48-3,9.22,9.22,0,0,0,.55-3.07,6.63,6.63,0,0,0-2.55,1.07,15.1,15.1,0,0,0-2.61,2.14,14.51,14.51,0,0,0-2,2.58A4.64,4.64,0,0,0,73.72,66,2.45,2.45,0,0,0,74.88,68Z" transform="translate(-31.73 -16.53)"/><path class="cls-1" d="M110.84,65.17a29,29,0,0,0,5.21-4.6,45.1,45.1,0,0,0,4.63-6.08,43,43,0,0,0,3.53-6.8,30.85,30.85,0,0,0,2-6.78.92.92,0,0,0-.75-.93q-.81,0-2.23,1.42A38.86,38.86,0,0,0,120.07,45q-1.71,2.2-3.47,4.92t-3.21,5.41q-1.45,2.69-2.46,5a12.78,12.78,0,0,0-1.13,3.79q-.58,0-1-1.16a2.09,2.09,0,0,0-.41-.61,6.46,6.46,0,0,0-.93-.78,5,5,0,0,1-.58-.55,2.58,2.58,0,0,1-.41-.55,3.58,3.58,0,0,1-.23-1.51,39.18,39.18,0,0,1,.87-7.7,83.64,83.64,0,0,1,2.29-8.74,89.07,89.07,0,0,1,7.3-16.68,41.9,41.9,0,0,1,4.14-6.08,11.58,11.58,0,0,1,3.94-3.3,9.13,9.13,0,0,1,1.39.58,17.59,17.59,0,0,1,1.62.93q.81.52,1.53,1a6.26,6.26,0,0,1,1.07.93,46.94,46.94,0,0,0-11,13.23,79.16,79.16,0,0,0-7.61,19.08,52.29,52.29,0,0,1,3.65-5.82,51.19,51.19,0,0,1,4-5,24.72,24.72,0,0,1,3.82-3.42,5.76,5.76,0,0,1,3-1.27,5.77,5.77,0,0,1,1.79.81,7.25,7.25,0,0,1,1.56,1.42,8.92,8.92,0,0,1,1.16,1.79,6.11,6.11,0,0,1,.58,2,20.82,20.82,0,0,1-.84,5.18,32.55,32.55,0,0,1-2.08,5.41,41.67,41.67,0,0,1-3,5.1A29.16,29.16,0,0,1,122,62.83a19.39,19.39,0,0,1-3.65,2.92,6.73,6.73,0,0,1-3.45,1.1,7.29,7.29,0,0,1-1.42-.15,6.71,6.71,0,0,1-1.33-.41,4.59,4.59,0,0,1-1-.55A.78.78,0,0,1,110.84,65.17Z" transform="translate(-31.73 -16.53)"/><path class="cls-1" d="M152.41,40.79A19.89,19.89,0,0,1,151.14,47a13.45,13.45,0,0,1-3,4.52,21.58,21.58,0,0,1-4.72,3.5A51.44,51.44,0,0,1,137,58c0,.23,0,.47,0,.72s0,.51,0,.78a11,11,0,0,0,.12,1.56,6.14,6.14,0,0,0,.41,1.51,2.88,2.88,0,0,0,.81,1.13,2,2,0,0,0,1.33.43,7.26,7.26,0,0,0,3.07-.69,16.08,16.08,0,0,0,2.87-1.71,23.22,23.22,0,0,0,2.55-2.2q1.19-1.19,2.11-2.17a12,12,0,0,1,1,1,27.86,27.86,0,0,1-5.7,5.76A16.22,16.22,0,0,1,139.56,67a9.54,9.54,0,0,1-6.23-2.92,8.53,8.53,0,0,1-2.23-5.94,18.45,18.45,0,0,1,.67-4.84,23.72,23.72,0,0,1,1.85-4.75,27.34,27.34,0,0,1,2.78-4.31,22.91,22.91,0,0,1,3.42-3.53,16.56,16.56,0,0,1,3.76-2.37,9.36,9.36,0,0,1,3.85-.87A7.79,7.79,0,0,1,152.41,40.79Zm-4,1.91A8.59,8.59,0,0,0,145.18,44,13.54,13.54,0,0,0,142,46.76a22.08,22.08,0,0,0-2.69,4.05,23.39,23.39,0,0,0-1.91,5,25.83,25.83,0,0,0,7.7-5.7A11.86,11.86,0,0,0,148.42,42.7Z" transform="translate(-31.73 -16.53)"/><path class="cls-1" d="M156.93,42.59a3.72,3.72,0,0,1-.52-1.48,9.84,9.84,0,0,1-.23-1.94,19.06,19.06,0,0,0,2.9.23h2.55q.87-1.72,1.88-3.41t2-3.09a26.59,26.59,0,0,1,1.79-2.38,6.76,6.76,0,0,1,1.3-1.26,7,7,0,0,1,1.48.2,17.72,17.72,0,0,1,1.82.52,18,18,0,0,1,1.68.67,3,3,0,0,1,1,.69q-1.74,2.18-3,4.05t-2.69,4.28h2.35a17,17,0,0,0,2.4-.17,2.13,2.13,0,0,1,.46.72,2.4,2.4,0,0,1,.17.9,19.1,19.1,0,0,1-6.89,1.1Q166,45,164.84,47.78t-1.91,5.31a46.46,46.46,0,0,0-1.22,4.82,21.8,21.8,0,0,0-.43,4.06q0,2.55,1.91,2.85a13.35,13.35,0,0,0,3.3-.87,10.93,10.93,0,0,0,2.78-1.62,2.41,2.41,0,0,1,.41.87,6.14,6.14,0,0,1-1.19,1.21q-.84.69-1.82,1.35a17.43,17.43,0,0,1-1.91,1.12,5,5,0,0,1-1.39.52,7.75,7.75,0,0,1-2.9-.58,12,12,0,0,1-2.63-1.45,8.41,8.41,0,0,1-1.94-1.94,3.68,3.68,0,0,1-.75-2.12,20.64,20.64,0,0,1,.38-3.51q.38-2.12,1.07-4.61T158.21,48q.93-2.73,2-5.39Z" transform="translate(-31.73 -16.53)"/><path class="cls-1" d="M176.16,42.59a3.72,3.72,0,0,1-.52-1.48,9.84,9.84,0,0,1-.23-1.94,19.06,19.06,0,0,0,2.9.23h2.55q.87-1.72,1.88-3.41t2-3.09a26.59,26.59,0,0,1,1.79-2.38,6.76,6.76,0,0,1,1.3-1.26,7,7,0,0,1,1.48.2,17.72,17.72,0,0,1,1.82.52,18,18,0,0,1,1.68.67,3,3,0,0,1,1,.69q-1.74,2.18-3,4.05t-2.69,4.28h2.35a17,17,0,0,0,2.4-.17,2.13,2.13,0,0,1,.46.72,2.4,2.4,0,0,1,.17.9,19.1,19.1,0,0,1-6.89,1.1q-1.45,2.79-2.58,5.54t-1.91,5.31a46.46,46.46,0,0,0-1.22,4.82A21.8,21.8,0,0,0,180.5,62q0,2.55,1.91,2.85a13.35,13.35,0,0,0,3.3-.87,10.93,10.93,0,0,0,2.78-1.62,2.41,2.41,0,0,1,.41.87,6.14,6.14,0,0,1-1.19,1.21q-.84.69-1.82,1.35A17.43,17.43,0,0,1,184,66.88a5,5,0,0,1-1.39.52,7.75,7.75,0,0,1-2.9-.58,12,12,0,0,1-2.63-1.45,8.41,8.41,0,0,1-1.94-1.94,3.68,3.68,0,0,1-.75-2.12,20.64,20.64,0,0,1,.38-3.51q.38-2.12,1.07-4.61T177.43,48q.93-2.73,2-5.39Z" transform="translate(-31.73 -16.53)"/><path class="cls-1" d="M212.7,40.79A19.89,19.89,0,0,1,211.42,47a13.45,13.45,0,0,1-3,4.52,21.58,21.58,0,0,1-4.72,3.5,51.44,51.44,0,0,1-6.49,3c0,.23,0,.47,0,.72s0,.51,0,.78a11,11,0,0,0,.12,1.56,6.14,6.14,0,0,0,.41,1.51,2.88,2.88,0,0,0,.81,1.13,2,2,0,0,0,1.33.43,7.26,7.26,0,0,0,3.07-.69,16.08,16.08,0,0,0,2.87-1.71,23.22,23.22,0,0,0,2.55-2.2q1.19-1.19,2.11-2.17a12,12,0,0,1,1,1,27.86,27.86,0,0,1-5.7,5.76A16.22,16.22,0,0,1,199.84,67a9.54,9.54,0,0,1-6.23-2.92,8.53,8.53,0,0,1-2.23-5.94,18.45,18.45,0,0,1,.67-4.84,23.72,23.72,0,0,1,1.85-4.75,27.34,27.34,0,0,1,2.78-4.31,22.91,22.91,0,0,1,3.42-3.53,16.56,16.56,0,0,1,3.76-2.37,9.36,9.36,0,0,1,3.85-.87A7.79,7.79,0,0,1,212.7,40.79Zm-4,1.91A8.59,8.59,0,0,0,205.46,44a13.54,13.54,0,0,0-3.16,2.78,22.08,22.08,0,0,0-2.69,4.05,23.39,23.39,0,0,0-1.91,5,25.83,25.83,0,0,0,7.7-5.7A11.86,11.86,0,0,0,208.7,42.7Z" transform="translate(-31.73 -16.53)"/><path class="cls-1" d="M212.81,63.61q.29-1.68,1-4.43t1.71-5.85q1-3.1,2.08-6.23t2.14-5.62a26.68,26.68,0,0,1,1.33-2.81A8.05,8.05,0,0,1,222.37,37a9.68,9.68,0,0,1,1.68.41,13,13,0,0,1,1.68.69,12.6,12.6,0,0,1,1.45.84,5,5,0,0,1,1,.84A21.24,21.24,0,0,0,225.41,44a45.8,45.8,0,0,0-2.4,6.08q3.13-2.78,5.53-5.33A43,43,0,0,0,233,39.05a1.94,1.94,0,0,1,1.22-.29,4.75,4.75,0,0,1,1.56.26,1.91,1.91,0,0,1,1,.72,15.59,15.59,0,0,0-1,5.5,7.67,7.67,0,0,0,.75,3.82,4.4,4.4,0,0,1-.78,1.33,16.18,16.18,0,0,1-1.59,1.85A9.26,9.26,0,0,1,231.4,50a9.47,9.47,0,0,1-1.8-3.1A40,40,0,0,0,225,50.67a20,20,0,0,0-3.27,4.05,24.63,24.63,0,0,0-2.32,5.13,69.21,69.21,0,0,0-1.82,6.89,4.42,4.42,0,0,1-1.25-.38,10.61,10.61,0,0,1-1.45-.78,9.93,9.93,0,0,1-1.3-1A2.66,2.66,0,0,1,212.81,63.61Z" transform="translate(-31.73 -16.53)"/><path class="cls-1" d="M249.53,62.39a27.94,27.94,0,0,1,.26-3.24q.26-2.08.69-4.52t1-5q.55-2.55,1.13-4.57a8.75,8.75,0,0,1,2.35-4.2,5.61,5.61,0,0,1,4-1.48,8.12,8.12,0,0,1,2.52.41q1.25.41,1.48,1a10.33,10.33,0,0,0-2.69,3.45,22.9,22.9,0,0,0-1.62,4.4,39.1,39.1,0,0,0-.93,4.81q-.32,2.46-.67,4.6,1.91-2.55,3.62-4.6a33.35,33.35,0,0,1,3-3.27,13.13,13.13,0,0,0,2.43-2.81,15.11,15.11,0,0,0,1.1-2.46q.35-1,.84-2.43A6.79,6.79,0,0,1,269.68,40a5.16,5.16,0,0,1,1-.06q.58,0,1.25.06a6.24,6.24,0,0,1,1.24.23,4.8,4.8,0,0,1,1,.41.84.84,0,0,1,.46.58A12.78,12.78,0,0,0,272.86,45a58.21,58.21,0,0,0-1.45,5.65q-.64,3.07-1.16,6.11t-.93,5.13a6.48,6.48,0,0,0,1-.93q.81-.81,1.82-2t2.14-2.66a33.5,33.5,0,0,0,2-2.84,29.73,29.73,0,0,0,1.82-3.16,24.51,24.51,0,0,0,1.27-3.16q.55-1.68,1-3.74t1-4.89a2.87,2.87,0,0,1,1.53-.78,8.47,8.47,0,0,1,2.17-.32,2.22,2.22,0,0,1,1.27.29,28.4,28.4,0,0,1-1.07,5.79,25.82,25.82,0,0,1-2.11,5,32.46,32.46,0,0,1-3.3,4.81q-2,2.4-4.63,5.24L272.89,61q-1.3,1.39-2.55,2.58a27.4,27.4,0,0,1-2.32,2,3.23,3.23,0,0,1-1.65.81,2.74,2.74,0,0,1-2.2-1,4,4,0,0,1-.87-2.66,25.67,25.67,0,0,1,.14-2.92,20.8,20.8,0,0,1,.49-2.63q.35-1.27.55-2.14l.35-1.51q.14-.64.2-1.1l.12-.93a5.61,5.61,0,0,0-1.22,1,22.79,22.79,0,0,0-1.56,1.68q-.81,1-1.62,1.94t-1.33,1.68q-1.1,1.51-1.91,2.66L256,62.57q-.72,1-1.42,2.11T252.94,67a4.74,4.74,0,0,1-2.64-1.74A5,5,0,0,1,249.53,62.39Z" transform="translate(-31.73 -16.53)"/><path class="cls-1" d="M284.68,60.89a12.13,12.13,0,0,1,.09-1.3q.09-.78.32-2.08t.61-3.16q.38-1.85,1-4.46.11-.58.52-1.85a22.34,22.34,0,0,1,1.07-2.69,17.43,17.43,0,0,1,1.62-2.75,6,6,0,0,1,2.29-2,10.2,10.2,0,0,1,2.61,1.19,8.8,8.8,0,0,1,2.78,2.63,20.14,20.14,0,0,0-2.23,3,29.9,29.9,0,0,0-1.62,3.13q-.73,1.62-1.33,3.36T291,57.59q-.64,1.62-1.16,3.33a12.34,12.34,0,0,0-.58,3q0,1,0,1.48t-.32.43a3.19,3.19,0,0,1-.93-.29,5.59,5.59,0,0,1-1.42-.9,6.42,6.42,0,0,1-1.3-1.53A4.06,4.06,0,0,1,284.68,60.89Zm11.06-25.13a4.73,4.73,0,0,1,.17-1,2.27,2.27,0,0,1-.49-.87,3.18,3.18,0,0,1-.2-1,9.44,9.44,0,0,1,.15-1.42q.14-.9.38-1.94t.58-2.17q.35-1.13.69-2.06a5.11,5.11,0,0,1,1.71.38,13.33,13.33,0,0,1,2.06,1,14,14,0,0,1,1.91,1.33A7.93,7.93,0,0,1,304,29.27q-.64.64-1.68,1.77t-2,2.37q-1,1.25-1.79,2.35a12.94,12.94,0,0,0-1,1.56,2.28,2.28,0,0,1-1.22-.61A1.37,1.37,0,0,1,295.74,35.75Z" transform="translate(-31.73 -16.53)"/><path class="cls-1" d="M300.14,42.59a3.72,3.72,0,0,1-.52-1.48,9.84,9.84,0,0,1-.23-1.94,19.06,19.06,0,0,0,2.9.23h2.55q.87-1.72,1.88-3.41t2-3.09a26.68,26.68,0,0,1,1.79-2.38,6.77,6.77,0,0,1,1.3-1.26,7,7,0,0,1,1.48.2,17.76,17.76,0,0,1,1.82.52,18,18,0,0,1,1.68.67,3,3,0,0,1,1,.69q-1.74,2.18-3,4.05t-2.69,4.28h2.35a17,17,0,0,0,2.4-.17,2.13,2.13,0,0,1,.46.72,2.41,2.41,0,0,1,.17.9,19.1,19.1,0,0,1-6.89,1.1Q309.17,45,308,47.78t-1.91,5.31a46.46,46.46,0,0,0-1.22,4.82,21.8,21.8,0,0,0-.43,4.06q0,2.55,1.91,2.85a13.36,13.36,0,0,0,3.3-.87,10.93,10.93,0,0,0,2.78-1.62,2.41,2.41,0,0,1,.41.87,6.14,6.14,0,0,1-1.19,1.21q-.84.69-1.82,1.35A17.43,17.43,0,0,1,308,66.88a5,5,0,0,1-1.39.52,7.75,7.75,0,0,1-2.9-.58A12,12,0,0,1,301,65.37a8.41,8.41,0,0,1-1.94-1.94,3.68,3.68,0,0,1-.75-2.12,20.64,20.64,0,0,1,.38-3.51q.38-2.12,1.07-4.61T301.41,48q.93-2.73,2-5.39Z" transform="translate(-31.73 -16.53)"/><path class="cls-1" d="M315.89,63.78A33.36,33.36,0,0,1,316.3,59q.4-2.75,1.19-5.88t1.85-6.54q1.07-3.42,2.4-6.83,1.16-3.07,2.69-6.2t3.33-6.14q1.79-3,3.73-5.73t3.91-5a9.54,9.54,0,0,1,2,.23,15.32,15.32,0,0,1,2.09.61,10.45,10.45,0,0,1,1.85.9,7.63,7.63,0,0,1,1.36,1,100.09,100.09,0,0,0-7.82,9,56.13,56.13,0,0,0-5.5,8.54q-1.1,2.2-2,4.11t-1.65,3.79q-.75,1.88-1.36,3.76t-1.13,4q11.12-14.19,16.5-14.19a6.64,6.64,0,0,1,3.24,1,10.56,10.56,0,0,1,3.07,2.66,44.58,44.58,0,0,0-3.71,4.75q-1.91,2.78-3.5,5.59a50.35,50.35,0,0,0-2.61,5.21,10.46,10.46,0,0,0-1,3.56,1.26,1.26,0,0,0,.17.78,1,1,0,0,0,.75.2,3.47,3.47,0,0,0,1.39-.23,2.57,2.57,0,0,1,.64-.23,4,4,0,0,1,.35.64,1,1,0,0,1,.06.29c0,.15-.23.38-.7.67a14.12,14.12,0,0,1-1.65.87q-1,.43-1.88.78a4.45,4.45,0,0,1-1.39.35,2.39,2.39,0,0,1-1.16-.32,3.54,3.54,0,0,1-1-.84,4.4,4.4,0,0,1-.69-1.16,3.48,3.48,0,0,1-.26-1.33,10.28,10.28,0,0,1,.49-2.58q.49-1.71,1.36-4t2.08-5q1.22-2.72,2.61-5.56a.21.21,0,0,0-.23-.23,2.85,2.85,0,0,0-.9.46q-.72.46-1.36.93a31.52,31.52,0,0,0-4.2,3.85,57.45,57.45,0,0,0-4.11,5,64,64,0,0,0-3.76,5.76,51.41,51.41,0,0,0-3,6.11,2.38,2.38,0,0,1-.52.75,1,1,0,0,1-.58.35c-.12,0-.28-.14-.49-.41a4.48,4.48,0,0,1-.58-1c-.17-.41-.34-.82-.49-1.25A3.28,3.28,0,0,1,315.89,63.78Z" transform="translate(-31.73 -16.53)"/><path class="cls-1" d="M380.17,61.39a31.57,31.57,0,0,1,.81-6.27q.81-3.83,2.14-8.19-3.82.3-7.67.79a54.45,54.45,0,0,1-6.69.48,105.82,105.82,0,0,0-4.14,11.22,90.22,90.22,0,0,0-2.4,10,8.14,8.14,0,0,1-3.65-1.82,14.89,14.89,0,0,1-2.66-3.27q.46-.93,1.07-2.37t1.45-3.5q.84-2.06,1.91-4.81t2.46-6.4A4.53,4.53,0,0,1,360.25,45a4,4,0,0,1,1.3-.49q1-.26,2.52-.55l.75-1.85q1.22-3.13,2-5.27t1.33-4.2q.55-2.06,1-4.55t1.19-6.31a9.6,9.6,0,0,1,4.43,2.14A16.41,16.41,0,0,1,378.26,28,17.76,17.76,0,0,0,377,30q-.75,1.39-1.65,3.33t-1.94,4.34q-1,2.4-2.26,5.07,3.59-.49,7.27-.93a56.35,56.35,0,0,1,6.51-.43q1-3,2.17-5.91t2.23-5.27q1.1-2.39,2.11-4.19a14.44,14.44,0,0,1,1.82-2.68,6.16,6.16,0,0,1,1.54.43,19.36,19.36,0,0,1,1.94.9,13.64,13.64,0,0,1,1.8,1.13,4,4,0,0,1,1.1,1.13,14.77,14.77,0,0,0-2.08,2.55,33.46,33.46,0,0,0-2.06,3.59q-1,2-2,4.4t-1.85,4.92A3.36,3.36,0,0,1,392.79,45a4.47,4.47,0,0,1-.46,2,3.92,3.92,0,0,0-1-.14,10.91,10.91,0,0,1-1.1-.06q-1,3.12-1.8,6.18T387,58.89q-.55,2.77-.87,5.08a29.25,29.25,0,0,0-.32,3.87c0,.39,0,.69,0,.92a3.55,3.55,0,0,0,.09.58,3.5,3.5,0,0,1-1.85-.38,3,3,0,0,1-.87-.81c-.19-.29-.37-.58-.52-.87a1.51,1.51,0,0,0-.75-.67,1.73,1.73,0,0,1-.75-.81,7.14,7.14,0,0,1-.58-1.45,12.23,12.23,0,0,1-.35-1.63A9.81,9.81,0,0,1,380.17,61.39Z" transform="translate(-31.73 -16.53)"/><path class="cls-1" d="M414.68,40.79A19.86,19.86,0,0,1,413.41,47a13.44,13.44,0,0,1-3,4.52,21.6,21.6,0,0,1-4.72,3.5,51.45,51.45,0,0,1-6.49,3c0,.23,0,.47,0,.72s0,.51,0,.78a10.93,10.93,0,0,0,.12,1.56,6.06,6.06,0,0,0,.41,1.51,2.87,2.87,0,0,0,.81,1.13,2,2,0,0,0,1.33.43,7.26,7.26,0,0,0,3.07-.69,16.08,16.08,0,0,0,2.87-1.71,23.26,23.26,0,0,0,2.55-2.2q1.19-1.19,2.11-2.17a12,12,0,0,1,1,1,27.84,27.84,0,0,1-5.7,5.76A16.23,16.23,0,0,1,401.83,67a9.54,9.54,0,0,1-6.23-2.92,8.53,8.53,0,0,1-2.23-5.94,18.45,18.45,0,0,1,.67-4.84,23.69,23.69,0,0,1,1.85-4.75,27.27,27.27,0,0,1,2.78-4.31,22.91,22.91,0,0,1,3.42-3.53,16.54,16.54,0,0,1,3.76-2.37,9.36,9.36,0,0,1,3.85-.87A7.79,7.79,0,0,1,414.68,40.79Zm-4,1.91A8.59,8.59,0,0,0,407.44,44a13.54,13.54,0,0,0-3.16,2.78,22.13,22.13,0,0,0-2.69,4.05,23.36,23.36,0,0,0-1.91,5,25.82,25.82,0,0,0,7.7-5.7A11.86,11.86,0,0,0,410.69,42.7Z" transform="translate(-31.73 -16.53)"/><path class="cls-1" d="M416.24,60.89a12.26,12.26,0,0,1,.09-1.3q.09-.78.32-2.08t.61-3.16q.38-1.85,1-4.46.12-.58.52-1.85a22.18,22.18,0,0,1,1.07-2.69,17.36,17.36,0,0,1,1.62-2.75,6,6,0,0,1,2.29-2,10.18,10.18,0,0,1,2.61,1.19,8.81,8.81,0,0,1,2.78,2.63,20.08,20.08,0,0,0-2.23,3,29.81,29.81,0,0,0-1.62,3.13q-.72,1.62-1.33,3.36t-1.36,3.65q-.64,1.62-1.16,3.33a12.34,12.34,0,0,0-.58,3q0,1,0,1.48t-.32.43a3.21,3.21,0,0,1-.93-.29,5.58,5.58,0,0,1-1.42-.9,6.42,6.42,0,0,1-1.3-1.53A4.07,4.07,0,0,1,416.24,60.89ZM427.3,35.75a4.79,4.79,0,0,1,.17-1,2.27,2.27,0,0,1-.49-.87,3.17,3.17,0,0,1-.2-1,9.43,9.43,0,0,1,.14-1.42q.14-.9.38-1.94t.58-2.17q.35-1.13.7-2.06a5.1,5.1,0,0,1,1.71.38,13.27,13.27,0,0,1,2.06,1,14,14,0,0,1,1.91,1.33,8,8,0,0,1,1.33,1.36q-.64.64-1.68,1.77t-2,2.37q-1,1.25-1.79,2.35a13.09,13.09,0,0,0-1,1.56,2.28,2.28,0,0,1-1.22-.61A1.37,1.37,0,0,1,427.3,35.75Z" transform="translate(-31.73 -16.53)"/><path class="cls-1" d="M462.17,47a3.84,3.84,0,0,0-2.26,1.13A27.22,27.22,0,0,0,457,51q-1.54,1.77-3.19,3.92t-3.18,4.26l-2.87,4q-1.33,1.86-2.26,3a6,6,0,0,1-2.2-1.53A5.94,5.94,0,0,1,442,62.1a37,37,0,0,1,.81-3.73,35.23,35.23,0,0,1,1.36-4A41.79,41.79,0,0,1,446.27,50a49.81,49.81,0,0,1,3-4.83,4.44,4.44,0,0,0-2.37,1.19,28.85,28.85,0,0,0-3.24,3.07q-1.74,1.88-3.59,4.23t-3.47,4.61q-2.14,3-3.56,5.28A10.23,10.23,0,0,1,431,66.21a6.22,6.22,0,0,1-2.08-2.37,12.18,12.18,0,0,1-.87-2.84,26.31,26.31,0,0,1,.43-3.47,34.86,34.86,0,0,1,1.07-4.29,55.25,55.25,0,0,1,3.45-8.4q2.11-4.17,4.08-7.64A10,10,0,0,1,440,38.3a13.76,13.76,0,0,1,2.75,2.2A18,18,0,0,1,441,44.3l-2.55,4.2A50.54,50.54,0,0,0,436,53a16.42,16.42,0,0,0-1.45,4.69q1.62-2.32,3.85-5.33T443,46.7a37.52,37.52,0,0,1,4.66-4.52,7,7,0,0,1,4.17-1.85,5.53,5.53,0,0,1,1.51.23,8.76,8.76,0,0,1,1.51.58,10,10,0,0,1,1.16.67q.46.32.52.49a15.09,15.09,0,0,1-1.36,3.16q-1.07,2-2.29,4.2t-2.26,4.26a11.43,11.43,0,0,0-1.22,3.27q2.84-3.88,5.33-7a69.35,69.35,0,0,1,4.69-5.41,24.31,24.31,0,0,1,4.08-3.47A6.62,6.62,0,0,1,467,40a4.15,4.15,0,0,1,2.17.61,3.24,3.24,0,0,1,1.42,1.77,28.62,28.62,0,0,1-1.71,4.17q-1.19,2.43-2.4,5.13T464.34,57a13.78,13.78,0,0,0-1,4.69,2.5,2.5,0,0,0,.35,1.59,1.27,1.27,0,0,0,1,.38,3.27,3.27,0,0,0,1.3-.26,2.61,2.61,0,0,1,.9-.26.86.86,0,0,1,.41.58,4,4,0,0,1,.06.64A13.47,13.47,0,0,1,465,65.9a6,6,0,0,1-2.72.61A5,5,0,0,1,460,66a4.1,4.1,0,0,1-1.48-1.27,5,5,0,0,1-.81-1.85,10.31,10.31,0,0,1-.23-2.25,15,15,0,0,1,.52-3.9,30.75,30.75,0,0,1,1.25-3.7q.72-1.76,1.54-3.3T462.17,47Z" transform="translate(-31.73 -16.53)"/><path class="cls-1" d="M473.46,67a4.63,4.63,0,0,1-1.94-.78,3.09,3.09,0,0,1-1.3-1.48,10.28,10.28,0,0,1,.2-1.79q.2-1.1.49-2.23t.58-2.14q.29-1,.41-1.53a6,6,0,0,1,1.77.35,13.38,13.38,0,0,1,2.2,1A15.62,15.62,0,0,1,478,59.7a6.55,6.55,0,0,1,1.54,1.59,10.8,10.8,0,0,1-1.33,2.2,13,13,0,0,1-1.71,1.82,9.51,9.51,0,0,1-1.71,1.22A3,3,0,0,1,473.46,67Z" transform="translate(-31.73 -16.53)"/></svg>