<svg id="Layer_1" data-name="Layer 1" xmlns="http://www.w3.org/2000/svg" viewBox="0 0 480.62 336.15"><defs><style>.cls-1{fill:#fff;}.cls-2{fill:#d71d24;}.cls-3{fill:#00446a;}.cls-4{fill:#6594b3;}</style></defs><title>HEIM-logo-with-white</title><path class="cls-1" d="M251.07,332c-43.49-22-79-52.75-102.75-88.91-20-30.43-31-63.43-31-92.92V43L259.2,0,401.05,43V150.21c0,29.49-11,62.49-31,92.92C346.34,279.29,310.81,310,267.33,332l-8.13,4.11Z" transform="translate(-18.89)"/><path class="cls-2" d="M62.61,139.69h46.26V122.36H95v-15.2h55.73v15.2h-14.4V173h14.4v16.67H95V173h13.87V154.89H62.61V173H77v16.67H21.28V173H35.15V122.36H21.28v-15.2H77v15.2H62.61Z" transform="translate(-18.89)"/><path class="cls-2" d="M247.13,157.55h18.4v32.13H161.4V173h13.87V122.36H161.4v-15.2H265.53v32h-18.4v-16.8h-44.4v17.33h30.53v15.2H202.74V173h44.4Z" transform="translate(-18.89)"/><path class="cls-2" d="M317.53,173h14.4v16.67H276.2V173h13.87V122.36H276.2v-15.2h55.73v15.2h-14.4Z" transform="translate(-18.89)"/><path class="cls-2" d="M418.92,187.55h-3.73l-37.4-43.46v28.8H397v16.67H342.73V172.89h13.87V122.36H342.73v-15.2h34.44l2.94.8,39.24,45.29,39-45.19,2.92-.9h35.89v15.2H483.25v50.53h13.87v16.67H441.39V172.89h14.4V144.22Z" transform="translate(-18.89)"/><path class="cls-3" d="M30.12,207.62a5.6,5.6,0,0,0-3.89-1.42c-1.66,0-3,.7-3,1.85,0,1.54,1.46,1.82,3.62,2,3.31.29,6.46,1.56,6.46,5.45s-3.46,5.38-7.08,5.4c-2.9,0-5.93-1.1-7.34-3.46l2.23-2.33a6.68,6.68,0,0,0,5.14,2.38c2,0,3.36-.79,3.36-2,0-1.42-1.1-2.06-3.38-2.26-3.55-.34-6.72-1.22-6.67-5.18,0-3.34,3.19-5.11,6.65-5.11,2.59,0,4.54.58,6.26,2.59Z" transform="translate(-18.89)"/><path class="cls-3" d="M47.78,217.49H39.17l-1.22,2.88h-4l7.54-16.8h4.08l7.54,16.8H49Zm-4.3-10.13-2.9,6.82h5.78Z" transform="translate(-18.89)"/><path class="cls-3" d="M55.08,220.37V203.59H67.32V207h-8.5v4h8v3.34h-8v6Z" transform="translate(-18.89)"/><path class="cls-3" d="M83.14,220.37H70.34v-16.8H82.8V207H74v3.24H82.3v3.29H74v3.38h9.12Z" transform="translate(-18.89)"/><path class="cls-3" d="M90,206.9H84.86v-3.34H98.81v3.34H93.7v13.46H90Z" transform="translate(-18.89)"/><path class="cls-3" d="M107.9,210.24l4.25-6.67h4.3v.19l-6.72,9.94v6.67H106v-6.67l-6.43-9.94v-.19h4.32Z" transform="translate(-18.89)"/><path class="cls-2" d="M121.53,215.21v-6.38h6.1v6.38Z" transform="translate(-18.89)"/><path class="cls-3" d="M148.46,220.37H135.67v-16.8h12.46V207h-8.78v3.24h8.28v3.29h-8.28v3.38h9.12Z" transform="translate(-18.89)"/><path class="cls-3" d="M155.4,203.56v13.37h8.4v3.43H151.65v-16.8Z" transform="translate(-18.89)"/><path class="cls-3" d="M179.09,220.37H166.29v-16.8h12.46V207H170v3.24h8.28v3.29H170v3.38h9.12Z" transform="translate(-18.89)"/><path class="cls-3" d="M196.58,218.33a8.89,8.89,0,0,1-6.46,2.47c-6.41,0-9-4.13-9-8.71,0-4.34,2.81-8.91,9-8.91a8.65,8.65,0,0,1,6.17,2.59l-2.35,2.33a5.48,5.48,0,0,0-3.82-1.39,5.08,5.08,0,0,0-5.28,5.4c0,2.45,1.34,5.23,5.28,5.23a6.36,6.36,0,0,0,4.13-1.61Z" transform="translate(-18.89)"/><path class="cls-3" d="M202.7,206.9h-5.11v-3.34h13.94v3.34h-5.11v13.46H202.7Z" transform="translate(-18.89)"/><path class="cls-3" d="M229,220.37h-4.15l-4.3-5.52H217.8v5.52h-3.74v-16.8h8c4.06,0,6.22,2.71,6.22,5.67,0,2.18-.67,4.13-3.89,5.28l4.61,5.57ZM217.8,206.78v4.9h4.27a2.33,2.33,0,0,0,2.47-2.35,2.47,2.47,0,0,0-2.52-2.54Z" transform="translate(-18.89)"/><path class="cls-3" d="M239.69,220.77c-5.38,0-9.07-3.34-9.07-8.81s3.7-8.81,9.07-8.81,9.07,3.34,9.07,8.81S245.06,220.77,239.69,220.77Zm0-14.26a5.27,5.27,0,0,0-5.4,5.45,5.4,5.4,0,1,0,5.4-5.45Z" transform="translate(-18.89)"/><path class="cls-3" d="M263.47,214.49l-.24-5.28v-5.64H267v16.8h-3.22l-8.35-10.75.14,5.52v5.23h-3.79v-16.8H255Z" transform="translate(-18.89)"/><path class="cls-3" d="M271,220.37v-16.8h3.72v16.8Z" transform="translate(-18.89)"/><path class="cls-3" d="M293.16,218.33a8.89,8.89,0,0,1-6.46,2.47c-6.41,0-9-4.13-9-8.71,0-4.34,2.81-8.91,9-8.91a8.65,8.65,0,0,1,6.17,2.59l-2.35,2.33a5.48,5.48,0,0,0-3.82-1.39,5.08,5.08,0,0,0-5.28,5.4c0,2.45,1.34,5.23,5.28,5.23a6.36,6.36,0,0,0,4.13-1.61Z" transform="translate(-18.89)"/><path class="cls-3" d="M305.57,207.62a5.6,5.6,0,0,0-3.89-1.42c-1.66,0-3,.7-3,1.85,0,1.54,1.46,1.82,3.62,2,3.31.29,6.46,1.56,6.46,5.45s-3.46,5.38-7.08,5.4c-2.9,0-5.93-1.1-7.34-3.46l2.23-2.33a6.68,6.68,0,0,0,5.14,2.38c2,0,3.36-.79,3.36-2,0-1.42-1.1-2.06-3.38-2.26-3.55-.34-6.72-1.22-6.67-5.18,0-3.34,3.19-5.11,6.65-5.11,2.59,0,4.54.58,6.26,2.59Z" transform="translate(-18.89)"/><path class="cls-2" d="M315.62,215.21v-6.38h6.1v6.38Z" transform="translate(-18.89)"/><path class="cls-3" d="M340.89,217.49h-8.62l-1.22,2.88h-4l7.54-16.8h4.08l7.54,16.8h-4.06Zm-4.3-10.13-2.9,6.82h5.79Z" transform="translate(-18.89)"/><path class="cls-3" d="M362.64,203.59V213c0,5-2.78,7.66-7.2,7.8s-8.11-2.38-8.11-7.8v-9.38H351V213c0,3,1.68,4.56,4.42,4.44,2.54-.17,3.46-1.92,3.46-4.44v-9.38Z" transform="translate(-18.89)"/><path class="cls-3" d="M370,206.9h-5.11v-3.34h13.95v3.34h-5.11v13.46H370Z" transform="translate(-18.89)"/><path class="cls-3" d="M389.23,220.77c-5.38,0-9.07-3.34-9.07-8.81s3.7-8.81,9.07-8.81,9.07,3.34,9.07,8.81S394.61,220.77,389.23,220.77Zm0-14.26a5.27,5.27,0,0,0-5.4,5.45,5.4,5.4,0,1,0,5.4-5.45Z" transform="translate(-18.89)"/><path class="cls-3" d="M415.94,208.7l-5.18,6.53h-.67l-5-6.58v11.74h-3.74v-16.8h4.3l4.9,6.46,4.92-6.46h4.25v16.8h-3.74Z" transform="translate(-18.89)"/><path class="cls-3" d="M435.57,217.49H427l-1.22,2.88h-4l7.54-16.8h4.08l7.54,16.8H436.8Zm-4.3-10.13-2.9,6.82h5.79Z" transform="translate(-18.89)"/><path class="cls-3" d="M445,206.9h-5.11v-3.34h13.95v3.34h-5.11v13.46H445Z" transform="translate(-18.89)"/><path class="cls-3" d="M456.38,220.37v-16.8h3.72v16.8Z" transform="translate(-18.89)"/><path class="cls-3" d="M472.2,220.77c-5.38,0-9.07-3.34-9.07-8.81s3.7-8.81,9.07-8.81,9.07,3.34,9.07,8.81S477.57,220.77,472.2,220.77Zm0-14.26a5.27,5.27,0,0,0-5.4,5.45,5.4,5.4,0,1,0,5.4-5.45Z" transform="translate(-18.89)"/><path class="cls-3" d="M496,214.49l-.24-5.28v-5.64h3.77v16.8h-3.22l-8.35-10.75.14,5.52v5.23h-3.79v-16.8h3.22Z" transform="translate(-18.89)"/><path class="cls-4" d="M259.2,90.39V18.81L135.35,56.39v34Z" transform="translate(-18.89)"/><path class="cls-4" d="M164.63,235.14c19.71,29.32,50.31,58.44,94.57,80.84V235.14Z" transform="translate(-18.89)"/><path class="cls-3" d="M383.05,90.39v-34L259.2,18.81V90.39Z" transform="translate(-18.89)"/><path class="cls-3" d="M259.2,235.14V316c44.26-22.4,74.86-51.52,94.57-80.84Z" transform="translate(-18.89)"/></svg>